<?xml version="1.0" encoding="UTF-8"?>
<svg width="117px" height="150px" viewBox="0 0 117 150" version="1.1" xmlns="http://www.w3.org/2000/svg" xmlns:xlink="http://www.w3.org/1999/xlink">
    <!-- Generator: Sketch 61 (89581) - https://sketch.com -->
    <title>login-screen&gt;defaul&gt;shield</title>
    <desc>Created with Sketch.</desc>
    <g id="Branding-screens" stroke="none" stroke-width="1" fill="none" fill-rule="evenodd">
        <g id="Splash-screen---iOS" transform="translate(-1100.000000, -541.000000)" fill="#FFFFFF" fill-rule="nonzero">
            <g id="[splash-screen]-" transform="translate(775.000000, 200.000000)">
                <g id="Logo-philips.svg" transform="translate(325.000000, 341.000000)">
                    <path d="M101.959,117.163043 C97.8575,117.665217 91.624,118.467391 90.116,118.884783 C88.2939707,119.318746 86.8694524,120.742987 86.4305,122.569565 C86.0015,124.076087 85.202,130.35 84.7145,134.471739 C91.7720299,130.187043 97.6874077,124.247405 101.9525,117.163043 L101.959,117.163043 Z M58.5,141.776143 C67.0769067,141.788927 75.5154184,139.607149 83.018,135.436957 C82.5435,131.413043 81.6465,124.2 81.1785,122.569565 C80.7468563,120.745928 79.3292909,119.3211 77.5125,118.884783 C75.2115,118.232609 61.9515,116.719565 61.9515,116.719565 L61.9515,115.806522 C61.9515,115.806522 75.2115,114.280435 77.5125,113.641304 C79.3308265,113.20774 80.749603,111.781695 81.1785,109.956522 C81.8285,107.784783 83.2065,95.576087 83.356,94.2586957 C74.256,95.9478261 68.0355,100.128261 60.216,104.165217 C51.909,108.430435 43.8035,111.482609 33.254,111.482609 C24.9268413,111.440979 16.7712842,109.103672 9.6785,104.726087 C15.8586665,126.64405 35.7977038,141.775526 58.5,141.776143 L58.5,141.776143 Z M8.6385,32.126087 L14.0725,32.126087 L14.0725,27.8608696 L16.0225,27.8608696 C21.086,27.8608696 24.284,25.2521739 24.284,20.6869565 C24.284,15.6782609 20.8585,13.8847826 15.275,13.8847826 C13.0621381,13.8900545 10.8511431,14.014145 8.6515,14.2565217 L8.6385,32.126087 Z M26.429,32.126087 L31.85,32.126087 L31.85,25.1021739 L37.5115,25.1021739 L37.5115,32.126087 L42.9455,32.126087 L42.9455,14.2630435 L37.518,14.2630435 L37.518,21.3586957 L31.85,21.3586957 L31.85,14.2630435 L26.429,14.2630435 L26.429,32.126087 Z M46.9755,32.126087 L52.4095,32.126087 L52.4095,14.2630435 L46.969,14.2630435 L46.9755,32.126087 Z M56.4265,32.126087 L66.248,32.126087 L67.0605,28.5391304 L61.8605,28.5391304 L61.8605,14.2630435 L56.4265,14.2630435 L56.4265,32.126087 Z M69.004,32.126087 L74.438,32.126087 L74.438,14.2630435 L69.004,14.2630435 L69.004,32.126087 Z M78.533,32.126087 L83.967,32.126087 L83.967,27.8608696 L85.917,27.8608696 C90.974,27.8608696 94.1785,25.2521739 94.1785,20.6869565 C94.1785,15.6782609 90.7595,13.8847826 85.1695,13.8847826 C82.9566392,13.8900919 80.7456462,14.0141823 78.546,14.2565217 L78.533,32.126087 Z M58.5,40.0173815 C54.3031309,40.0147734 50.1221099,40.5339463 46.0525,41.5630435 C46.267,43.35 46.878,48.3195652 47.1705,49.3891304 C47.4124693,50.4014458 48.2017923,51.1908865 49.2115,51.4304348 C50.4725,51.7826087 57.616,52.5913043 57.616,52.5913043 L57.616,53.1 C57.616,53.1 50.466,53.9413043 49.2115,54.2934783 C48.2025535,54.5343971 47.4138329,55.3232353 47.1705,56.3347826 C46.8845,57.3195652 46.319,61.8847826 46.085,63.8608696 C50.31,64.4217391 54.847,64.95 54.847,64.95 L54.847,65.8630435 C54.847,65.8630435 41.587,67.3891304 39.299,68.0282609 C37.4754465,68.4594769 36.0497196,69.8849263 35.6135,71.7130435 C35.0025,73.8326087 33.6635,85.3630435 33.488,87.0978261 C42.8545,85.3695652 50.843,80.5108696 56.8425,77.6086957 C65.3705,73.4804348 73.1705,70.0891304 83.824,70.0891304 C92.08604,70.1253838 100.179811,72.4353117 107.224,76.7673913 C100.945229,55.0019032 81.0833223,40.0210914 58.5,40.0173815 L58.5,40.0173815 Z M104.2535,27.1891304 C104.2535,28.3108696 103.4345,28.9108696 101.426,28.9108696 C99.2924345,28.8488878 97.1919406,28.3657762 95.2445,27.4891304 L95.8425,31.5978261 C97.6695519,32.1996802 99.5810066,32.5035412 101.504,32.4979052 C106.054,32.4979052 109.7655,31.0043478 109.7655,26.5173913 C109.7655,20.5434783 101.205,21.6652174 101.205,18.8217391 C101.205,17.85 102.1735,17.4 103.7335,17.4 C105.388607,17.4039468 107.029296,17.708876 108.576,18.3 L108.1275,14.3869565 C106.491944,14.0166559 104.818513,13.8415291 103.142,13.8652174 C98.7545,13.8652174 95.7775,15.6065217 95.7775,19.2456522 C95.7775,25.5195652 104.26,24.2543478 104.26,27.1695652 L104.2535,27.1891304 Z M84.2595,94.1086957 C84.3765,95.1456522 85.813,107.745652 86.437,109.943478 C86.8732196,111.771595 88.2989465,113.197045 90.1225,113.628261 C91.7475,114.078261 98.9235,114.984783 102.934,115.467391 C106.079823,109.754393 108.094976,103.484974 108.8685,97.0043478 C103.364077,94.8127911 97.5064737,93.650172 91.585,93.573913 C89.1331159,93.5635586 86.6840666,93.7423463 84.2595,94.1086957 L84.2595,94.1086957 Z M26.741,62.7521739 C28.5635868,62.3197095 29.9857008,60.8903139 30.4135,59.0608696 C30.836,57.5869565 31.603,51.573913 32.1035,47.4586957 C25.2108976,51.6877659 19.4184734,57.4995628 15.2035,64.4152174 C19.2985,63.9065217 25.272,63.1108696 26.741,62.726087 L26.741,62.7521739 Z M8.2095,84.5152174 C13.6994251,86.6582011 19.531003,87.7851088 25.4215,87.8413043 C27.8170293,87.8407372 30.208444,87.6422403 32.5715,87.2478261 C32.37,85.4282609 31.0505,73.8 30.4395,71.6869565 C30.0081603,69.860802 28.5870674,68.4349562 26.767,68.0021739 C25.168,67.5586957 18.265,66.6978261 14.209,66.1956522 C11.0674063,71.8622112 9.03952324,78.0813348 8.2355,84.5152174 L8.2095,84.5152174 Z M44.2975,56.3086957 C44.0544639,55.2946268 43.2622161,54.5047763 42.25,54.2673913 C41.2425,53.9934783 36.582,53.4065217 34.6645,53.1717391 C35.022,55.826087 35.3795,58.2130435 35.6265,59.0413043 C36.0591891,60.8727129 37.4859351,62.301706 39.312,62.7326087 C40.183,62.973913 42.64,63.3456522 45.357,63.7108696 C45.11,61.6891304 44.564,57.2608696 44.278,56.2891304 L44.2975,56.3086957 Z M44.278,49.3369565 C44.564,48.3326087 45.149,43.6434783 45.3765,41.7195652 C41.3464095,42.7988744 37.4662752,44.3784655 33.826,46.4217391 C34.0275,48.123913 34.3005,50.3347826 34.5735,52.4543478 C36.4325,52.2391304 41.223,51.6586957 42.25,51.3782609 C43.2554536,51.1357726 44.0395388,50.3465437 44.278,49.3369565 L44.278,49.3369565 Z M8.19,97.173913 C14.6055,101.269565 23.53,103.297826 31.018,103.297826 C42.354,103.297826 49.1725,99.9130435 56.6475,96.1695652 C66.9175,91.023913 75.4455,85.6043478 88.829,85.676087 C95.9136883,85.6821163 102.895637,87.376442 109.2,90.6195652 C109.190012,88.5043319 109.051086,86.3916917 108.784,84.2934783 C102.375,80.2304348 93.4765,78.1304348 86.034,78.1304348 C74.7045,78.1304348 67.899,81.6130435 60.4175,85.3043478 C50.843,90.123913 41.6585,95.8695652 28.314,95.8695652 C21.1769244,95.9012578 14.1383451,94.1983829 7.8,90.9065217 L7.8,90.9065217 C7.80470037,93.0016062 7.93493531,95.0945123 8.19,97.173913 L8.19,97.173913 Z M117,3.21521739 L117,90.8413043 C117,123.258018 90.8086579,149.536957 58.5,149.536957 C26.1913421,149.536957 0,123.258018 0,90.8413043 L0,3.21521739 C19.4289132,1.0976733 38.9568112,0.0244008642 58.5,9.9475983e-14 C84.37,9.9475983e-14 109.135,2.1326087 117,3.21521739 L117,3.21521739 Z M72.3385,126.241304 C72.059,125.25 71.4155,119.667391 71.4155,119.667391 L71.0125,119.667391 C71.0125,119.667391 70.3625,125.25 70.0895,126.241304 C69.9027335,127.029671 69.2892385,127.645218 68.5035,127.832609 C67.509,128.106522 61.9515,128.765217 61.9515,128.765217 L61.9515,129.130435 C61.9515,129.130435 67.5155,129.782609 68.5035,130.063043 C69.2867402,130.250725 69.8992292,130.862744 70.0895,131.647826 C70.369,132.63913 71.0125,138.221739 71.0125,138.221739 L71.4155,138.221739 C71.4155,138.221739 72.0655,132.63913 72.3385,131.647826 C72.5287708,130.862744 73.1412598,130.250725 73.9245,130.063043 C74.919,129.78913 80.4765,129.130435 80.4765,129.130435 L80.4765,128.732609 C80.4765,128.732609 74.919,128.080435 73.9245,127.8 C73.1395254,127.611238 72.5266326,126.996296 72.3385,126.208696 L72.3385,126.241304 Z M89.05,20.7652174 C89.05,18.5217391 87.7825,17.25 85.1045,17.25 C84.825,17.25 84.526,17.25 84.214,17.25 L84.214,24.6456522 L85.15,24.6456522 C87.9775,24.6456522 89.0955,23.073913 89.0955,20.7326087 L89.05,20.7652174 Z M15.262,24.6456522 L14.3325,24.6456522 L14.3325,17.2695652 C14.651,17.2695652 14.95,17.2695652 15.2295,17.2695652 C17.9075,17.2695652 19.175,18.5413043 19.175,20.7847826 C19.175,23.0282609 18.057,24.6978261 15.2295,24.6978261 L15.262,24.6456522 Z" id="login-screen&gt;defaul&gt;shield"></path>
                </g>
            </g>
        </g>
    </g>
</svg>